# xmcd
#
# Track frame offsets: 
#        150
#        19546
#        38654
#        53611
#        68370
#        82463
#        100095
#        118036
#        131857
#        144559
#        163042
#        179358
#        193169
#        207626
#        226938
#        240768
#
# Disc length: 3515 seconds
#
# Revision: 0
# Processed by: cddbd v1.5.2PL0 Copyright (c) Steve Scherf et al.
# Submitted via: ExactAudioCopy v1.0b1
#
DISCID=d80db910
DTITLE=Ulica Mandelsztama - Sklep z ptasimi piórami
DYEAR=2010
DGENRE=Ballad
TTITLE0=Jak czarny anioł
TTITLE1=Gdzie mam się podziać
TTITLE2=Nie, to nie żadna migrena
TTITLE3=Wypiję za wojenne astry
TTITLE4=Życie spadło niemym błyskiem
TTITLE5=Ostatnia wieczerza
TTITLE6=Może to jest z obłędem igrania
TTITLE7=Trwał dzień o pięciu głowach
TTITLE8=Do ust chciałbytm podnosić tę zieleń
TTITLE9=Tylko jedno pragnienie
TTITLE10=Mieszkanie milczące jak papier
TTITLE11=Twoje wąskie ramiona
TTITLE12=Nie motylem mączystym i białym
TTITLE13=Jeszcze jeden toast
TTITLE14=Prosto z mostu mówić bedę
TTITLE15=Książki tylko dziecinne czytywać
EXTD=
EXTT0=
EXTT1=
EXTT2=
EXTT3=
EXTT4=
EXTT5=
EXTT6=
EXTT7=
EXTT8=
EXTT9=
EXTT10=
EXTT11=
EXTT12=
EXTT13=
EXTT14=
EXTT15=
PLAYORDER=
